<svg xmlns="http://www.w3.org/2000/svg" width="32" height="32" viewBox="0 0 32 32" fill="none">
<g clip-path="url(#clip0_1_74)">
<rect width="32" height="32" transform="translate(1.52588e-05 -0.174042)" fill="#DAE995"/>
<rect x="25.8486" y="5.97736" width="8.20717" height="8.20717" rx="2.46215" transform="rotate(90 25.8486 5.97736)" fill="#262E2C"/>
<rect x="25.8486" y="17.4674" width="8.20717" height="8.20717" rx="2.46215" transform="rotate(90 25.8486 17.4674)" fill="#262E2C"/>
<rect x="14.3587" y="5.97736" width="8.20717" height="8.20717" rx="2.46215" transform="rotate(90 14.3587 5.97736)" fill="#262E2C"/>
<rect x="14.3587" y="17.4674" width="8.20717" height="8.20717" rx="2.46215" transform="rotate(90 14.3587 17.4674)" fill="#262E2C"/>
<g clip-path="url(#clip1_1_74)">
<path d="M14.3586 23.2124L14.3586 21.571C14.3586 17.492 17.6661 14.1845 21.745 14.1845L23.3865 14.1845C24.7488 14.1845 25.8486 13.0848 25.8486 11.7224L25.8486 8.43951C25.8486 7.07712 24.7488 5.97736 23.3865 5.97736L20.1036 5.97736C18.7412 5.97736 17.6414 7.07712 17.6414 8.43951L17.6414 10.0809C17.6414 14.1599 14.3339 17.4674 10.255 17.4674L8.61355 17.4674C7.25116 17.4674 6.1514 18.5671 6.1514 19.9295L6.1514 23.2124C6.1514 24.5748 7.25116 25.6746 8.61355 25.6746L11.8964 25.6746C13.2588 25.6746 14.3586 24.5748 14.3586 23.2124Z" fill="#262E2C"/>
</g>
</g>
<defs>
<clipPath id="clip0_1_74">
<rect width="32" height="32" rx="7.11111" fill="white"/>
</clipPath>
<clipPath id="clip1_1_74">
<rect width="19.6972" height="19.6972" fill="white" transform="translate(25.8486 5.97736) rotate(90)"/>
</clipPath>
</defs>
</svg>