<svg xmlns="http://www.w3.org/2000/svg" width="178" height="25" viewBox="0 0 178 25" fill="none">
<rect x="24.0488" y="0.558105" width="9.99998" height="9.99998" rx="2.99999" transform="rotate(90 24.0488 0.558105)" fill="#ffffff"/>
<rect x="24.0488" y="14.5581" width="9.99998" height="9.99998" rx="2.99999" transform="rotate(90 24.0488 14.5581)" fill="#ffffff"/>
<rect x="10.0488" y="0.558105" width="9.99998" height="9.99998" rx="2.99999" transform="rotate(90 10.0488 0.558105)" fill="#ffffff"/>
<rect x="10.0488" y="14.5581" width="9.99998" height="9.99998" rx="2.99999" transform="rotate(90 10.0488 14.5581)" fill="#ffffff"/>
<g clip-path="url(#clip0_1043_42419)">
<path d="M10.0489 21.5581L10.0489 19.5581C10.0489 14.5881 14.0788 10.5581 19.0488 10.5581L21.0488 10.5581C22.7088 10.5581 24.0488 9.21809 24.0488 7.55809L24.0488 3.5581C24.0488 1.8981 22.7088 0.558105 21.0488 0.558105L17.0488 0.558105C15.3888 0.558105 14.0488 1.8981 14.0488 3.5581L14.0488 5.55809C14.0488 10.5281 10.0189 14.5581 5.04887 14.5581L3.04887 14.5581C1.38887 14.5581 0.0488775 15.8981 0.0488774 17.5581L0.0488773 21.5581C0.0488772 23.2181 1.38887 24.5581 3.04887 24.5581L7.04886 24.5581C8.70886 24.5581 10.0489 23.2181 10.0489 21.5581Z" fill="#ffffff"/>
</g>
<mask id="path-6-outside-1_1043_42419" maskUnits="userSpaceOnUse" x="32.7373" y="1.72021" width="144" height="22" fill="black">
<rect fill="white" x="32.7373" y="1.72021" width="144" height="22"/>
<path d="M33.7695 22.7202V3.05787H36.8838V13.7204L36.0657 13.4037L44.9599 3.05787H48.8396L40.9746 12.2688L41.133 10.0519L49.1563 22.7202H45.4878L39.7342 13.7204L36.8838 17.0458V22.7202H33.7695ZM55.2037 23.0369C54.2359 23.0369 53.3826 22.8698 52.6436 22.5355C51.9222 22.1836 51.3592 21.7085 50.9545 21.1103C50.5498 20.4945 50.3475 19.7731 50.3475 18.9461C50.3475 18.1719 50.5146 17.4769 50.8489 16.8611C51.2008 16.2453 51.7375 15.7262 52.4589 15.3039C53.1802 14.8817 54.0864 14.5826 55.1773 14.4066L60.139 13.5884V15.9374L55.7579 16.7027C54.9661 16.8435 54.3855 17.0986 54.016 17.4681C53.6465 17.82 53.4618 18.2775 53.4618 18.8405C53.4618 19.386 53.6641 19.8346 54.0688 20.1865C54.4911 20.5208 55.0277 20.688 55.6787 20.688C56.4881 20.688 57.1919 20.512 57.7901 20.1602C58.4059 19.8083 58.881 19.342 59.2153 18.7614C59.5496 18.1631 59.7168 17.5033 59.7168 16.7819V13.1134C59.7168 12.4096 59.4528 11.8377 58.925 11.3979C58.4147 10.9404 57.7285 10.7117 56.8664 10.7117C56.0746 10.7117 55.3796 10.9228 54.7814 11.3451C54.2008 11.7498 53.7697 12.2776 53.4882 12.9286L51.0073 11.6882C51.2712 10.9844 51.7023 10.3686 52.3005 9.84072C52.8987 9.29527 53.5937 8.87299 54.3855 8.57388C55.1949 8.27477 56.0482 8.12521 56.9456 8.12521C58.0716 8.12521 59.0658 8.33635 59.9279 8.75863C60.8077 9.18091 61.4851 9.77034 61.9601 10.5269C62.4528 11.2659 62.6991 12.1281 62.6991 13.1134V22.7202H59.8487V20.1338L60.4558 20.2129C60.1215 20.7936 59.6904 21.295 59.1625 21.7173C58.6523 22.1396 58.0628 22.4651 57.3942 22.6938C56.7432 22.9226 56.013 23.0369 55.2037 23.0369ZM66.1862 22.7202V8.44192H69.0366V11.5298L68.6671 11.0548C68.9662 10.087 69.5116 9.35686 70.3034 8.8642C71.0952 8.37154 72.0013 8.12521 73.0218 8.12521C74.1655 8.12521 75.1772 8.43312 76.057 9.04895C76.9543 9.64717 77.5525 10.4477 77.8517 11.4507L77.0071 11.5298C77.4294 10.3862 78.0716 9.53281 78.9337 8.96977C79.8135 8.40673 80.8164 8.12521 81.9425 8.12521C82.9278 8.12521 83.8163 8.35394 84.6081 8.81141C85.4175 9.26888 86.0597 9.9023 86.5348 10.7117C87.0098 11.521 87.2474 12.4448 87.2474 13.4829V22.7202H84.265V14.301C84.265 13.5796 84.133 12.9726 83.8691 12.48C83.6228 11.9697 83.2709 11.5826 82.8134 11.3187C82.3736 11.0372 81.8545 10.8964 81.2563 10.8964C80.658 10.8964 80.1302 11.0372 79.6727 11.3187C79.2153 11.5826 78.8546 11.9697 78.5906 12.48C78.3267 12.9902 78.1948 13.5972 78.1948 14.301V22.7202H75.2388V14.301C75.2388 13.5796 75.1068 12.9726 74.8429 12.48C74.5966 11.9697 74.2447 11.5826 73.7872 11.3187C73.3473 11.0372 72.8195 10.8964 72.2037 10.8964C71.6054 10.8964 71.0776 11.0372 70.6201 11.3187C70.1627 11.5826 69.802 11.9697 69.538 12.48C69.2917 12.9902 69.1685 13.5972 69.1685 14.301V22.7202H66.1862ZM97.1431 23.0369C95.7179 23.0369 94.451 22.7114 93.3426 22.0604C92.2517 21.3918 91.3983 20.4945 90.7825 19.3684C90.1667 18.2247 89.8588 16.9491 89.8588 15.5415C89.8588 14.0987 90.1667 12.8231 90.7825 11.7146C91.4159 10.6061 92.2605 9.73515 93.3162 9.10173C94.3719 8.45072 95.5683 8.12521 96.9055 8.12521C97.9788 8.12521 98.9377 8.30996 99.7823 8.67945C100.627 9.04894 101.339 9.5592 101.92 10.2102C102.501 10.8436 102.941 11.5738 103.24 12.4008C103.556 13.2277 103.715 14.1075 103.715 15.04C103.715 15.2688 103.706 15.5063 103.688 15.7526C103.671 15.9989 103.636 16.2277 103.583 16.4388H92.2077V14.0635H101.894L100.469 15.1456C100.644 14.2834 100.583 13.5181 100.284 12.8495C100.002 12.1632 99.5624 11.6266 98.9641 11.2395C98.3835 10.8348 97.6973 10.6325 96.9055 10.6325C96.1138 10.6325 95.41 10.8348 94.7941 11.2395C94.1783 11.6266 93.7033 12.1896 93.3689 12.9286C93.0346 13.65 92.9027 14.5298 92.9731 15.5679C92.8851 16.5356 93.017 17.3801 93.3689 18.1015C93.7384 18.8229 94.2487 19.386 94.8997 19.7907C95.5683 20.1953 96.3249 20.3977 97.1695 20.3977C98.0316 20.3977 98.7618 20.2041 99.36 19.817C99.9758 19.43 100.46 18.9285 100.812 18.3127L103.24 19.5003C102.958 20.1689 102.518 20.776 101.92 21.3214C101.339 21.8493 100.636 22.2715 99.8087 22.5883C98.9993 22.8874 98.1108 23.0369 97.1431 23.0369ZM106.625 22.7202V2.74116H109.608V22.7202H106.625ZM119.798 23.0369C118.373 23.0369 117.106 22.7114 115.998 22.0604C114.907 21.3918 114.054 20.4945 113.438 19.3684C112.822 18.2247 112.514 16.9491 112.514 15.5415C112.514 14.0987 112.822 12.8231 113.438 11.7146C114.071 10.6061 114.916 9.73515 115.971 9.10173C117.027 8.45072 118.224 8.12521 119.561 8.12521C120.634 8.12521 121.593 8.30996 122.438 8.67945C123.282 9.04894 123.995 9.5592 124.575 10.2102C125.156 10.8436 125.596 11.5738 125.895 12.4008C126.212 13.2277 126.37 14.1075 126.37 15.04C126.37 15.2688 126.361 15.5063 126.344 15.7526C126.326 15.9989 126.291 16.2277 126.238 16.4388H114.863V14.0635H124.549L123.124 15.1456C123.3 14.2834 123.238 13.5181 122.939 12.8495C122.657 12.1632 122.218 11.6266 121.619 11.2395C121.039 10.8348 120.353 10.6325 119.561 10.6325C118.769 10.6325 118.065 10.8348 117.449 11.2395C116.834 11.6266 116.358 12.1896 116.024 12.9286C115.69 13.65 115.558 14.5298 115.628 15.5679C115.54 16.5356 115.672 17.3801 116.024 18.1015C116.394 18.8229 116.904 19.386 117.555 19.7907C118.224 20.1953 118.98 20.3977 119.825 20.3977C120.687 20.3977 121.417 20.2041 122.015 19.817C122.631 19.43 123.115 18.9285 123.467 18.3127L125.895 19.5003C125.613 20.1689 125.174 20.776 124.575 21.3214C123.995 21.8493 123.291 22.2715 122.464 22.5883C121.655 22.8874 120.766 23.0369 119.798 23.0369ZM136.169 23.0369C134.797 23.0369 133.539 22.7114 132.395 22.0604C131.269 21.4094 130.371 20.5208 129.703 19.3948C129.034 18.2687 128.7 16.9931 128.7 15.5679C128.7 14.1251 129.034 12.8495 129.703 11.741C130.371 10.6149 131.269 9.73515 132.395 9.10173C133.521 8.45072 134.779 8.12521 136.169 8.12521C137.577 8.12521 138.835 8.45072 139.943 9.10173C141.069 9.73515 141.958 10.6149 142.609 11.741C143.277 12.8495 143.612 14.1251 143.612 15.5679C143.612 17.0107 143.277 18.2951 142.609 19.4212C141.94 20.5472 141.043 21.4358 139.917 22.0868C138.791 22.7202 137.541 23.0369 136.169 23.0369ZM136.169 20.2657C137.014 20.2657 137.761 20.0634 138.412 19.6587C139.063 19.254 139.574 18.6998 139.943 17.996C140.33 17.2746 140.524 16.4652 140.524 15.5679C140.524 14.6705 140.33 13.87 139.943 13.1662C139.574 12.4624 139.063 11.9081 138.412 11.5034C137.761 11.0988 137.014 10.8964 136.169 10.8964C135.342 10.8964 134.594 11.0988 133.926 11.5034C133.275 11.9081 132.756 12.4624 132.368 13.1662C131.999 13.87 131.814 14.6705 131.814 15.5679C131.814 16.4652 131.999 17.2746 132.368 17.996C132.756 18.6998 133.275 19.254 133.926 19.6587C134.594 20.0634 135.342 20.2657 136.169 20.2657ZM153.412 23.0369C152.039 23.0369 150.781 22.7114 149.638 22.0604C148.511 21.4094 147.614 20.5208 146.946 19.3948C146.277 18.2687 145.943 16.9931 145.943 15.5679C145.943 14.1251 146.277 12.8495 146.946 11.741C147.614 10.6149 148.511 9.73515 149.638 9.10173C150.764 8.45072 152.022 8.12521 153.412 8.12521C154.819 8.12521 156.077 8.45072 157.186 9.10173C158.312 9.73515 159.2 10.6149 159.851 11.741C160.52 12.8495 160.854 14.1251 160.854 15.5679C160.854 17.0107 160.52 18.2951 159.851 19.4212C159.183 20.5472 158.285 21.4358 157.159 22.0868C156.033 22.7202 154.784 23.0369 153.412 23.0369ZM153.412 20.2657C154.256 20.2657 155.004 20.0634 155.655 19.6587C156.306 19.254 156.816 18.6998 157.186 17.996C157.573 17.2746 157.766 16.4652 157.766 15.5679C157.766 14.6705 157.573 13.87 157.186 13.1662C156.816 12.4624 156.306 11.9081 155.655 11.5034C155.004 11.0988 154.256 10.8964 153.412 10.8964C152.585 10.8964 151.837 11.0988 151.168 11.5034C150.517 11.9081 149.998 12.4624 149.611 13.1662C149.242 13.87 149.057 14.6705 149.057 15.5679C149.057 16.4652 149.242 17.2746 149.611 17.996C149.998 18.6998 150.517 19.254 151.168 19.6587C151.837 20.0634 152.585 20.2657 153.412 20.2657ZM163.766 22.7202V8.44192H166.616V11.2395L166.273 10.87C166.625 9.97268 167.188 9.29527 167.962 8.83781C168.737 8.36274 169.634 8.12521 170.654 8.12521C171.71 8.12521 172.643 8.35394 173.452 8.81141C174.261 9.26888 174.895 9.9023 175.352 10.7117C175.81 11.521 176.038 12.4536 176.038 13.5093V22.7202H173.082V14.301C173.082 13.5796 172.951 12.9726 172.687 12.48C172.423 11.9697 172.044 11.5826 171.552 11.3187C171.077 11.0372 170.531 10.8964 169.915 10.8964C169.3 10.8964 168.745 11.0372 168.253 11.3187C167.778 11.5826 167.408 11.9697 167.144 12.48C166.88 12.9902 166.748 13.5972 166.748 14.301V22.7202H163.766Z"/>
</mask>
<path d="M33.7695 22.7202V3.05787H36.8838V13.7204L36.0657 13.4037L44.9599 3.05787H48.8396L40.9746 12.2688L41.133 10.0519L49.1563 22.7202H45.4878L39.7342 13.7204L36.8838 17.0458V22.7202H33.7695ZM55.2037 23.0369C54.2359 23.0369 53.3826 22.8698 52.6436 22.5355C51.9222 22.1836 51.3592 21.7085 50.9545 21.1103C50.5498 20.4945 50.3475 19.7731 50.3475 18.9461C50.3475 18.1719 50.5146 17.4769 50.8489 16.8611C51.2008 16.2453 51.7375 15.7262 52.4589 15.3039C53.1802 14.8817 54.0864 14.5826 55.1773 14.4066L60.139 13.5884V15.9374L55.7579 16.7027C54.9661 16.8435 54.3855 17.0986 54.016 17.4681C53.6465 17.82 53.4618 18.2775 53.4618 18.8405C53.4618 19.386 53.6641 19.8346 54.0688 20.1865C54.4911 20.5208 55.0277 20.688 55.6787 20.688C56.4881 20.688 57.1919 20.512 57.7901 20.1602C58.4059 19.8083 58.881 19.342 59.2153 18.7614C59.5496 18.1631 59.7168 17.5033 59.7168 16.7819V13.1134C59.7168 12.4096 59.4528 11.8377 58.925 11.3979C58.4147 10.9404 57.7285 10.7117 56.8664 10.7117C56.0746 10.7117 55.3796 10.9228 54.7814 11.3451C54.2008 11.7498 53.7697 12.2776 53.4882 12.9286L51.0073 11.6882C51.2712 10.9844 51.7023 10.3686 52.3005 9.84072C52.8987 9.29527 53.5937 8.87299 54.3855 8.57388C55.1949 8.27477 56.0482 8.12521 56.9456 8.12521C58.0716 8.12521 59.0658 8.33635 59.9279 8.75863C60.8077 9.18091 61.4851 9.77034 61.9601 10.5269C62.4528 11.2659 62.6991 12.1281 62.6991 13.1134V22.7202H59.8487V20.1338L60.4558 20.2129C60.1215 20.7936 59.6904 21.295 59.1625 21.7173C58.6523 22.1396 58.0628 22.4651 57.3942 22.6938C56.7432 22.9226 56.013 23.0369 55.2037 23.0369ZM66.1862 22.7202V8.44192H69.0366V11.5298L68.6671 11.0548C68.9662 10.087 69.5116 9.35686 70.3034 8.8642C71.0952 8.37154 72.0013 8.12521 73.0218 8.12521C74.1655 8.12521 75.1772 8.43312 76.057 9.04895C76.9543 9.64717 77.5525 10.4477 77.8517 11.4507L77.0071 11.5298C77.4294 10.3862 78.0716 9.53281 78.9337 8.96977C79.8135 8.40673 80.8164 8.12521 81.9425 8.12521C82.9278 8.12521 83.8163 8.35394 84.6081 8.81141C85.4175 9.26888 86.0597 9.9023 86.5348 10.7117C87.0098 11.521 87.2474 12.4448 87.2474 13.4829V22.7202H84.265V14.301C84.265 13.5796 84.133 12.9726 83.8691 12.48C83.6228 11.9697 83.2709 11.5826 82.8134 11.3187C82.3736 11.0372 81.8545 10.8964 81.2563 10.8964C80.658 10.8964 80.1302 11.0372 79.6727 11.3187C79.2153 11.5826 78.8546 11.9697 78.5906 12.48C78.3267 12.9902 78.1948 13.5972 78.1948 14.301V22.7202H75.2388V14.301C75.2388 13.5796 75.1068 12.9726 74.8429 12.48C74.5966 11.9697 74.2447 11.5826 73.7872 11.3187C73.3473 11.0372 72.8195 10.8964 72.2037 10.8964C71.6054 10.8964 71.0776 11.0372 70.6201 11.3187C70.1627 11.5826 69.802 11.9697 69.538 12.48C69.2917 12.9902 69.1685 13.5972 69.1685 14.301V22.7202H66.1862ZM97.1431 23.0369C95.7179 23.0369 94.451 22.7114 93.3426 22.0604C92.2517 21.3918 91.3983 20.4945 90.7825 19.3684C90.1667 18.2247 89.8588 16.9491 89.8588 15.5415C89.8588 14.0987 90.1667 12.8231 90.7825 11.7146C91.4159 10.6061 92.2605 9.73515 93.3162 9.10173C94.3719 8.45072 95.5683 8.12521 96.9055 8.12521C97.9788 8.12521 98.9377 8.30996 99.7823 8.67945C100.627 9.04894 101.339 9.5592 101.92 10.2102C102.501 10.8436 102.941 11.5738 103.24 12.4008C103.556 13.2277 103.715 14.1075 103.715 15.04C103.715 15.2688 103.706 15.5063 103.688 15.7526C103.671 15.9989 103.636 16.2277 103.583 16.4388H92.2077V14.0635H101.894L100.469 15.1456C100.644 14.2834 100.583 13.5181 100.284 12.8495C100.002 12.1632 99.5624 11.6266 98.9641 11.2395C98.3835 10.8348 97.6973 10.6325 96.9055 10.6325C96.1138 10.6325 95.41 10.8348 94.7941 11.2395C94.1783 11.6266 93.7033 12.1896 93.3689 12.9286C93.0346 13.65 92.9027 14.5298 92.9731 15.5679C92.8851 16.5356 93.017 17.3801 93.3689 18.1015C93.7384 18.8229 94.2487 19.386 94.8997 19.7907C95.5683 20.1953 96.3249 20.3977 97.1695 20.3977C98.0316 20.3977 98.7618 20.2041 99.36 19.817C99.9758 19.43 100.46 18.9285 100.812 18.3127L103.24 19.5003C102.958 20.1689 102.518 20.776 101.92 21.3214C101.339 21.8493 100.636 22.2715 99.8087 22.5883C98.9993 22.8874 98.1108 23.0369 97.1431 23.0369ZM106.625 22.7202V2.74116H109.608V22.7202H106.625ZM119.798 23.0369C118.373 23.0369 117.106 22.7114 115.998 22.0604C114.907 21.3918 114.054 20.4945 113.438 19.3684C112.822 18.2247 112.514 16.9491 112.514 15.5415C112.514 14.0987 112.822 12.8231 113.438 11.7146C114.071 10.6061 114.916 9.73515 115.971 9.10173C117.027 8.45072 118.224 8.12521 119.561 8.12521C120.634 8.12521 121.593 8.30996 122.438 8.67945C123.282 9.04894 123.995 9.5592 124.575 10.2102C125.156 10.8436 125.596 11.5738 125.895 12.4008C126.212 13.2277 126.37 14.1075 126.37 15.04C126.37 15.2688 126.361 15.5063 126.344 15.7526C126.326 15.9989 126.291 16.2277 126.238 16.4388H114.863V14.0635H124.549L123.124 15.1456C123.3 14.2834 123.238 13.5181 122.939 12.8495C122.657 12.1632 122.218 11.6266 121.619 11.2395C121.039 10.8348 120.353 10.6325 119.561 10.6325C118.769 10.6325 118.065 10.8348 117.449 11.2395C116.834 11.6266 116.358 12.1896 116.024 12.9286C115.69 13.65 115.558 14.5298 115.628 15.5679C115.54 16.5356 115.672 17.3801 116.024 18.1015C116.394 18.8229 116.904 19.386 117.555 19.7907C118.224 20.1953 118.98 20.3977 119.825 20.3977C120.687 20.3977 121.417 20.2041 122.015 19.817C122.631 19.43 123.115 18.9285 123.467 18.3127L125.895 19.5003C125.613 20.1689 125.174 20.776 124.575 21.3214C123.995 21.8493 123.291 22.2715 122.464 22.5883C121.655 22.8874 120.766 23.0369 119.798 23.0369ZM136.169 23.0369C134.797 23.0369 133.539 22.7114 132.395 22.0604C131.269 21.4094 130.371 20.5208 129.703 19.3948C129.034 18.2687 128.7 16.9931 128.7 15.5679C128.7 14.1251 129.034 12.8495 129.703 11.741C130.371 10.6149 131.269 9.73515 132.395 9.10173C133.521 8.45072 134.779 8.12521 136.169 8.12521C137.577 8.12521 138.835 8.45072 139.943 9.10173C141.069 9.73515 141.958 10.6149 142.609 11.741C143.277 12.8495 143.612 14.1251 143.612 15.5679C143.612 17.0107 143.277 18.2951 142.609 19.4212C141.94 20.5472 141.043 21.4358 139.917 22.0868C138.791 22.7202 137.541 23.0369 136.169 23.0369ZM136.169 20.2657C137.014 20.2657 137.761 20.0634 138.412 19.6587C139.063 19.254 139.574 18.6998 139.943 17.996C140.33 17.2746 140.524 16.4652 140.524 15.5679C140.524 14.6705 140.33 13.87 139.943 13.1662C139.574 12.4624 139.063 11.9081 138.412 11.5034C137.761 11.0988 137.014 10.8964 136.169 10.8964C135.342 10.8964 134.594 11.0988 133.926 11.5034C133.275 11.9081 132.756 12.4624 132.368 13.1662C131.999 13.87 131.814 14.6705 131.814 15.5679C131.814 16.4652 131.999 17.2746 132.368 17.996C132.756 18.6998 133.275 19.254 133.926 19.6587C134.594 20.0634 135.342 20.2657 136.169 20.2657ZM153.412 23.0369C152.039 23.0369 150.781 22.7114 149.638 22.0604C148.511 21.4094 147.614 20.5208 146.946 19.3948C146.277 18.2687 145.943 16.9931 145.943 15.5679C145.943 14.1251 146.277 12.8495 146.946 11.741C147.614 10.6149 148.511 9.73515 149.638 9.10173C150.764 8.45072 152.022 8.12521 153.412 8.12521C154.819 8.12521 156.077 8.45072 157.186 9.10173C158.312 9.73515 159.2 10.6149 159.851 11.741C160.52 12.8495 160.854 14.1251 160.854 15.5679C160.854 17.0107 160.52 18.2951 159.851 19.4212C159.183 20.5472 158.285 21.4358 157.159 22.0868C156.033 22.7202 154.784 23.0369 153.412 23.0369ZM153.412 20.2657C154.256 20.2657 155.004 20.0634 155.655 19.6587C156.306 19.254 156.816 18.6998 157.186 17.996C157.573 17.2746 157.766 16.4652 157.766 15.5679C157.766 14.6705 157.573 13.87 157.186 13.1662C156.816 12.4624 156.306 11.9081 155.655 11.5034C155.004 11.0988 154.256 10.8964 153.412 10.8964C152.585 10.8964 151.837 11.0988 151.168 11.5034C150.517 11.9081 149.998 12.4624 149.611 13.1662C149.242 13.87 149.057 14.6705 149.057 15.5679C149.057 16.4652 149.242 17.2746 149.611 17.996C149.998 18.6998 150.517 19.254 151.168 19.6587C151.837 20.0634 152.585 20.2657 153.412 20.2657ZM163.766 22.7202V8.44192H166.616V11.2395L166.273 10.87C166.625 9.97268 167.188 9.29527 167.962 8.83781C168.737 8.36274 169.634 8.12521 170.654 8.12521C171.71 8.12521 172.643 8.35394 173.452 8.81141C174.261 9.26888 174.895 9.9023 175.352 10.7117C175.81 11.521 176.038 12.4536 176.038 13.5093V22.7202H173.082V14.301C173.082 13.5796 172.951 12.9726 172.687 12.48C172.423 11.9697 172.044 11.5826 171.552 11.3187C171.077 11.0372 170.531 10.8964 169.915 10.8964C169.3 10.8964 168.745 11.0372 168.253 11.3187C167.778 11.5826 167.408 11.9697 167.144 12.48C166.88 12.9902 166.748 13.5972 166.748 14.301V22.7202H163.766Z" fill="#ffffff"/>
<path d="M33.7695 22.7202H33.6388V22.851H33.7695V22.7202ZM33.7695 3.05787V2.9271H33.6388V3.05787H33.7695ZM36.8838 3.05787H37.0146V2.9271H36.8838V3.05787ZM36.8838 13.7204L36.8366 13.8423L37.0146 13.9112V13.7204H36.8838ZM36.0657 13.4037L35.9665 13.3184L35.8458 13.4588L36.0185 13.5256L36.0657 13.4037ZM44.9599 3.05787V2.9271H44.8999L44.8607 2.97262L44.9599 3.05787ZM48.8396 3.05787L48.939 3.14278L49.1232 2.9271H48.8396V3.05787ZM40.9746 12.2688L40.8442 12.2595L40.8159 12.6561L41.0741 12.3537L40.9746 12.2688ZM41.133 10.0519L41.2435 9.98189L41.0309 9.64621L41.0026 10.0425L41.133 10.0519ZM49.1563 22.7202V22.851H49.3939L49.2668 22.6502L49.1563 22.7202ZM45.4878 22.7202L45.3776 22.7906L45.4161 22.851H45.4878V22.7202ZM39.7342 13.7204L39.8444 13.65L39.7495 13.5016L39.6349 13.6353L39.7342 13.7204ZM36.8838 17.0458L36.7845 16.9607L36.7531 16.9975V17.0458H36.8838ZM36.8838 22.7202V22.851H37.0146V22.7202H36.8838ZM33.7695 22.7202H33.9003V3.05787H33.7695H33.6388V22.7202H33.7695ZM33.7695 3.05787V3.18863H36.8838V3.05787V2.9271H33.7695V3.05787ZM36.8838 3.05787H36.7531V13.7204H36.8838H37.0146V3.05787H36.8838ZM36.8838 13.7204L36.931 13.5985L36.1129 13.2817L36.0657 13.4037L36.0185 13.5256L36.8366 13.8423L36.8838 13.7204ZM36.0657 13.4037L36.1648 13.4889L45.0591 3.14311L44.9599 3.05787L44.8607 2.97262L35.9665 13.3184L36.0657 13.4037ZM44.9599 3.05787V3.18863H48.8396V3.05787V2.9271H44.9599V3.05787ZM48.8396 3.05787L48.7401 2.97295L40.8752 12.1839L40.9746 12.2688L41.0741 12.3537L48.939 3.14278L48.8396 3.05787ZM40.9746 12.2688L41.1051 12.2781L41.2634 10.0612L41.133 10.0519L41.0026 10.0425L40.8442 12.2595L40.9746 12.2688ZM41.133 10.0519L41.0225 10.1218L49.0458 22.7902L49.1563 22.7202L49.2668 22.6502L41.2435 9.98189L41.133 10.0519ZM49.1563 22.7202V22.5895H45.4878V22.7202V22.851H49.1563V22.7202ZM45.4878 22.7202L45.5979 22.6498L39.8444 13.65L39.7342 13.7204L39.624 13.7908L45.3776 22.7906L45.4878 22.7202ZM39.7342 13.7204L39.6349 13.6353L36.7845 16.9607L36.8838 17.0458L36.9831 17.1309L39.8335 13.8055L39.7342 13.7204ZM36.8838 17.0458H36.7531V22.7202H36.8838H37.0146V17.0458H36.8838ZM36.8838 22.7202V22.5895H33.7695V22.7202V22.851H36.8838V22.7202ZM52.6436 22.5355L52.5862 22.653L52.5897 22.6546L52.6436 22.5355ZM50.9545 21.1103L50.8452 21.1821L50.8462 21.1835L50.9545 21.1103ZM50.8489 16.8611L50.7354 16.7962L50.734 16.7987L50.8489 16.8611ZM52.4589 15.3039L52.3928 15.1911L52.3928 15.1911L52.4589 15.3039ZM55.1773 14.4066L55.1981 14.5357L55.1985 14.5356L55.1773 14.4066ZM60.139 13.5884H60.2698V13.4343L60.1178 13.4594L60.139 13.5884ZM60.139 15.9374L60.1615 16.0662L60.2698 16.0473V15.9374H60.139ZM55.7579 16.7027L55.7354 16.5739L55.735 16.574L55.7579 16.7027ZM54.016 17.4681L54.1062 17.5628L54.1085 17.5606L54.016 17.4681ZM54.0688 20.1865L53.9829 20.2853L53.9876 20.2891L54.0688 20.1865ZM57.7901 20.1602L57.7252 20.0466L57.7238 20.0474L57.7901 20.1602ZM59.2153 18.7614L59.3286 18.8266L59.3295 18.8251L59.2153 18.7614ZM58.925 11.3979L58.8376 11.4953L58.8413 11.4983L58.925 11.3979ZM54.7814 11.3451L54.8562 11.4524L54.8568 11.4519L54.7814 11.3451ZM53.4882 12.9286L53.4297 13.0456L53.5533 13.1074L53.6082 12.9805L53.4882 12.9286ZM51.0073 11.6882L50.8848 11.6423L50.8435 11.7525L50.9488 11.8051L51.0073 11.6882ZM52.3005 9.84072L52.387 9.93878L52.3886 9.93735L52.3005 9.84072ZM54.3855 8.57388L54.3402 8.45122L54.3393 8.45155L54.3855 8.57388ZM59.9279 8.75863L59.8704 8.87607L59.8713 8.87651L59.9279 8.75863ZM61.9601 10.5269L61.8493 10.5965L61.8513 10.5995L61.9601 10.5269ZM62.6991 22.7202V22.851H62.8299V22.7202H62.6991ZM59.8487 22.7202H59.718V22.851H59.8487V22.7202ZM59.8487 20.1338L59.8656 20.0041L59.718 19.9848V20.1338H59.8487ZM60.4558 20.2129L60.5691 20.2782L60.6667 20.1086L60.4727 20.0833L60.4558 20.2129ZM59.1625 21.7173L59.0808 21.6152L59.0792 21.6166L59.1625 21.7173ZM57.3942 22.6938L57.3519 22.5701L57.3509 22.5705L57.3942 22.6938ZM55.2037 23.0369V22.9062C54.251 22.9062 53.4166 22.7416 52.6975 22.4163L52.6436 22.5355L52.5897 22.6546C53.3486 22.9979 54.2209 23.1677 55.2037 23.1677V23.0369ZM52.6436 22.5355L52.7009 22.4179C51.9978 22.0749 51.4533 21.6142 51.0628 21.037L50.9545 21.1103L50.8462 21.1835C51.2651 21.8028 51.8466 22.2922 52.5863 22.653L52.6436 22.5355ZM50.9545 21.1103L51.0638 21.0385C50.6748 20.4465 50.4782 19.7508 50.4782 18.9461H50.3475H50.2167C50.2167 19.7954 50.4248 20.5424 50.8452 21.1821L50.9545 21.1103ZM50.3475 18.9461H50.4782C50.4782 18.1914 50.641 17.5182 50.9638 16.9235L50.8489 16.8611L50.734 16.7987C50.3882 17.4356 50.2167 18.1525 50.2167 18.9461H50.3475ZM50.8489 16.8611L50.9625 16.926C51.3011 16.3333 51.8197 15.8296 52.5249 15.4168L52.4589 15.3039L52.3928 15.1911C51.6552 15.6229 51.1005 16.1572 50.7354 16.7962L50.8489 16.8611ZM52.4589 15.3039L52.5249 15.4168C53.2287 15.0048 54.1183 14.7099 55.1981 14.5357L55.1773 14.4066L55.1564 14.2775C54.0545 14.4552 53.1318 14.7585 52.3928 15.1911L52.4589 15.3039ZM55.1773 14.4066L55.1985 14.5356L60.1603 13.7175L60.139 13.5884L60.1178 13.4594L55.156 14.2776L55.1773 14.4066ZM60.139 13.5884H60.0083V15.9374H60.139H60.2698V13.5884H60.139ZM60.139 15.9374L60.1165 15.8086L55.7354 16.5739L55.7579 16.7027L55.7804 16.8316L60.1615 16.0662L60.139 15.9374ZM55.7579 16.7027L55.735 16.574C54.9301 16.7171 54.3197 16.9795 53.9235 17.3757L54.016 17.4681L54.1085 17.5606C54.4513 17.2177 55.0021 16.9699 55.7808 16.8315L55.7579 16.7027ZM54.016 17.4681L53.9258 17.3734C53.5276 17.7527 53.331 18.2458 53.331 18.8405H53.4618H53.5925C53.5925 18.3092 53.7654 17.8873 54.1062 17.5628L54.016 17.4681ZM53.4618 18.8405H53.331C53.331 19.4231 53.5492 19.908 53.983 20.2852L54.0688 20.1865L54.1546 20.0879C53.779 19.7613 53.5925 19.3489 53.5925 18.8405H53.4618ZM54.0688 20.1865L53.9876 20.2891C54.4375 20.6452 55.0046 20.8188 55.6787 20.8188V20.688V20.5572C55.0508 20.5572 54.5446 20.3964 54.15 20.084L54.0688 20.1865ZM55.6787 20.688V20.8188C56.5075 20.8188 57.235 20.6384 57.8564 20.2729L57.7901 20.1602L57.7238 20.0474C57.1488 20.3857 56.4687 20.5572 55.6787 20.5572V20.688ZM57.7901 20.1602L57.855 20.2737C58.4897 19.911 58.9821 19.4285 59.3286 18.8266L59.2153 18.7614L59.102 18.6961C58.7799 19.2554 58.3221 19.7055 57.7252 20.0466L57.7901 20.1602ZM59.2153 18.7614L59.3295 18.8251C59.6752 18.2064 59.8475 17.5244 59.8475 16.7819H59.7168H59.586C59.586 17.4822 59.424 18.1199 59.1012 18.6976L59.2153 18.7614ZM59.7168 16.7819H59.8475V13.1134H59.7168H59.586V16.7819H59.7168ZM59.7168 13.1134H59.8475C59.8475 12.3719 59.5672 11.7628 59.0087 11.2974L58.925 11.3979L58.8413 11.4983C59.3385 11.9127 59.586 12.4473 59.586 13.1134H59.7168ZM58.925 11.3979L59.0123 11.3005C58.4723 10.8164 57.7521 10.5809 56.8664 10.5809V10.7117V10.8424C57.7049 10.8424 58.3572 11.0644 58.8377 11.4952L58.925 11.3979ZM56.8664 10.7117V10.5809C56.0499 10.5809 55.3281 10.7991 54.706 11.2383L54.7814 11.3451L54.8568 11.4519C55.4311 11.0465 56.0993 10.8424 56.8664 10.8424V10.7117ZM54.7814 11.3451L54.7066 11.2378C54.106 11.6564 53.6593 12.2035 53.3681 12.8767L53.4882 12.9286L53.6082 12.9805C53.8801 12.3518 54.2955 11.8431 54.8562 11.4524L54.7814 11.3451ZM53.4882 12.9286L53.5466 12.8117L51.0657 11.5712L51.0073 11.6882L50.9488 11.8051L53.4297 13.0456L53.4882 12.9286ZM51.0073 11.6882L51.1297 11.7341C51.3856 11.0516 51.8038 10.4533 52.387 9.93877L52.3005 9.84072L52.214 9.74266C51.6007 10.2838 51.1567 10.9172 50.8848 11.6423L51.0073 11.6882ZM52.3005 9.84072L52.3886 9.93735C52.9741 9.40354 53.6547 8.98975 54.4317 8.69621L54.3855 8.57388L54.3393 8.45155C53.5328 8.75624 52.8234 9.187 52.2124 9.74409L52.3005 9.84072ZM54.3855 8.57388L54.4308 8.69654C55.2251 8.403 56.0631 8.25597 56.9456 8.25597V8.12521V7.99445C56.0334 7.99445 55.1646 8.14653 54.3402 8.45123L54.3855 8.57388ZM56.9456 8.12521V8.25597C58.0551 8.25597 59.029 8.46395 59.8704 8.87606L59.9279 8.75863L59.9854 8.64119C59.1025 8.20875 58.0881 7.99445 56.9456 7.99445V8.12521ZM59.9279 8.75863L59.8713 8.87651C60.7309 9.28914 61.3886 9.8627 61.8494 10.5965L61.9601 10.5269L62.0709 10.4574C61.5815 9.67798 60.8844 9.07268 59.9845 8.64074L59.9279 8.75863ZM61.9601 10.5269L61.8513 10.5995C62.3281 11.3146 62.5683 12.1509 62.5683 13.1134H62.6991H62.8299C62.8299 12.1052 62.5774 11.2172 62.0689 10.4544L61.9601 10.5269ZM62.6991 13.1134H62.5683V22.7202H62.6991H62.8299V13.1134H62.6991ZM62.6991 22.7202V22.5895H59.8487V22.7202V22.851H62.6991V22.7202ZM59.8487 22.7202H59.9795V20.1338H59.8487H59.718V22.7202H59.8487ZM59.8487 20.1338L59.8318 20.2634L60.4388 20.3426L60.4558 20.2129L60.4727 20.0833L59.8656 20.0041L59.8487 20.1338ZM60.4558 20.2129L60.3424 20.1477C60.0164 20.714 59.596 21.203 59.0808 21.6152L59.1625 21.7173L59.2442 21.8194C59.7847 21.387 60.2265 20.8731 60.5691 20.2782L60.4558 20.2129ZM59.1625 21.7173L59.0792 21.6166C58.5819 22.0281 58.0066 22.3461 57.3519 22.5701L57.3942 22.6938L57.4366 22.8175C58.1191 22.584 58.7227 22.2511 59.2459 21.818L59.1625 21.7173ZM57.3942 22.6938L57.3509 22.5705C56.716 22.7935 56.0008 22.9062 55.2037 22.9062V23.0369V23.1677C56.0253 23.1677 56.7705 23.0516 57.4376 22.8172L57.3942 22.6938ZM66.1862 22.7202H66.0554V22.851H66.1862V22.7202ZM66.1862 8.44192V8.31115H66.0554V8.44192H66.1862ZM69.0366 8.44192H69.1674V8.31115H69.0366V8.44192ZM69.0366 11.5298L68.9334 11.6101L69.1674 11.9109V11.5298H69.0366ZM68.6671 11.0548L68.5422 11.0162L68.522 11.0813L68.5639 11.135L68.6671 11.0548ZM70.3034 8.8642L70.2343 8.75317L70.2343 8.75317L70.3034 8.8642ZM76.057 9.04895L75.982 9.1561L75.9844 9.15775L76.057 9.04895ZM77.8517 11.4507L77.8639 11.5808L78.0225 11.566L77.977 11.4133L77.8517 11.4507ZM77.0071 11.5298L76.8844 11.4845L76.8125 11.6794L77.0193 11.66L77.0071 11.5298ZM78.9337 8.96977L78.8632 8.85962L78.8622 8.86028L78.9337 8.96977ZM84.6081 8.81141L84.5427 8.92464L84.5438 8.92525L84.6081 8.81141ZM86.5348 10.7117L86.422 10.7779L86.422 10.7779L86.5348 10.7117ZM87.2474 22.7202V22.851H87.3781V22.7202H87.2474ZM84.265 22.7202H84.1342V22.851H84.265V22.7202ZM83.8691 12.48L83.7513 12.5369L83.7539 12.5417L83.8691 12.48ZM82.8134 11.3187L82.7429 11.4289L82.7481 11.432L82.8134 11.3187ZM79.6727 11.3187L79.7381 11.432L79.7413 11.4301L79.6727 11.3187ZM78.5906 12.48L78.7068 12.54L78.7068 12.54L78.5906 12.48ZM78.1948 22.7202V22.851H78.3255V22.7202H78.1948ZM75.2388 22.7202H75.108V22.851H75.2388V22.7202ZM74.8429 12.48L74.7251 12.5369L74.7277 12.5417L74.8429 12.48ZM73.7872 11.3187L73.7167 11.4289L73.7219 11.432L73.7872 11.3187ZM70.6201 11.3187L70.6855 11.432L70.6887 11.4301L70.6201 11.3187ZM69.538 12.48L69.4218 12.4199L69.4203 12.4231L69.538 12.48ZM69.1685 22.7202V22.851H69.2993V22.7202H69.1685ZM66.1862 22.7202H66.317V8.44192H66.1862H66.0554V22.7202H66.1862ZM66.1862 8.44192V8.57268H69.0366V8.44192V8.31115H66.1862V8.44192ZM69.0366 8.44192H68.9058V11.5298H69.0366H69.1674V8.44192H69.0366ZM69.0366 11.5298L69.1398 11.4495L68.7703 10.9745L68.6671 11.0548L68.5639 11.135L68.9334 11.6101L69.0366 11.5298ZM68.6671 11.0548L68.792 11.0934C69.0827 10.1529 69.6098 9.44977 70.3725 8.97522L70.3034 8.8642L70.2343 8.75317C69.4135 9.26394 68.8497 10.0212 68.5422 11.0162L68.6671 11.0548ZM70.3034 8.8642L70.3725 8.97522C71.1416 8.49667 72.0234 8.25597 73.0218 8.25597V8.12521V7.99445C71.9793 7.99445 71.0488 8.24641 70.2343 8.75317L70.3034 8.8642ZM73.0218 8.12521V8.25597C74.1405 8.25597 75.1257 8.55666 75.982 9.15607L76.057 9.04895L76.132 8.94182C75.2288 8.30959 74.1905 7.99445 73.0218 7.99445V8.12521ZM76.057 9.04895L75.9844 9.15775C76.8572 9.73961 77.4362 10.5153 77.7263 11.488L77.8517 11.4507L77.977 11.4133C77.6688 10.3802 77.0514 9.55473 76.1295 8.94014L76.057 9.04895ZM77.8517 11.4507L77.8394 11.3205L76.9949 11.3996L77.0071 11.5298L77.0193 11.66L77.8639 11.5808L77.8517 11.4507ZM77.0071 11.5298L77.1298 11.5751C77.5442 10.4528 78.1707 9.62426 79.0052 9.07925L78.9337 8.96977L78.8622 8.86028C77.9725 9.44135 77.3146 10.3195 76.8844 11.4845L77.0071 11.5298ZM78.9337 8.96977L79.0042 9.07991C79.8613 8.53139 80.8393 8.25597 81.9425 8.25597V8.12521V7.99445C80.7935 7.99445 79.7657 8.28207 78.8633 8.85963L78.9337 8.96977ZM81.9425 8.12521V8.25597C82.9067 8.25597 83.7723 8.47955 84.5427 8.92464L84.6081 8.81141L84.6735 8.69819C83.8603 8.22834 82.9489 7.99445 81.9425 7.99445V8.12521ZM84.6081 8.81141L84.5438 8.92525C85.3329 9.37127 85.9585 9.98817 86.422 10.7779L86.5348 10.7117L86.6475 10.6455C86.1609 9.81643 85.5021 9.16649 84.6725 8.69757L84.6081 8.81141ZM86.5348 10.7117L86.422 10.7779C86.884 11.5651 87.1166 12.4655 87.1166 13.4829H87.2474H87.3781C87.3781 12.424 87.1356 11.477 86.6475 10.6455L86.5348 10.7117ZM87.2474 13.4829H87.1166V22.7202H87.2474H87.3781V13.4829H87.2474ZM87.2474 22.7202V22.5895H84.265V22.7202V22.851H87.2474V22.7202ZM84.265 22.7202H84.3958V14.301H84.265H84.1342V22.7202H84.265ZM84.265 14.301H84.3958C84.3958 13.5642 84.261 12.9346 83.9844 12.4182L83.8691 12.48L83.7539 12.5417C84.0051 13.0106 84.1342 13.5951 84.1342 14.301H84.265ZM83.8691 12.48L83.9869 12.4231C83.73 11.891 83.3607 11.4834 82.8788 11.2054L82.8134 11.3187L82.7481 11.432C83.1811 11.6818 83.5156 12.0484 83.7514 12.5368L83.8691 12.48ZM82.8134 11.3187L82.8839 11.2086C82.4201 10.9117 81.8758 10.7656 81.2563 10.7656V10.8964V11.0272C81.8332 11.0272 82.327 11.1627 82.7429 11.4288L82.8134 11.3187ZM81.2563 10.8964V10.7656C80.6367 10.7656 80.0846 10.9117 79.6042 11.2073L79.6727 11.3187L79.7413 11.4301C80.1758 11.1626 80.6794 11.0272 81.2563 11.0272V10.8964ZM79.6727 11.3187L79.6074 11.2054C79.1263 11.4829 78.7489 11.8894 78.4745 12.4199L78.5906 12.48L78.7068 12.54C78.9603 12.05 79.3042 11.6823 79.7381 11.432L79.6727 11.3187ZM78.5906 12.48L78.4745 12.4199C78.199 12.9524 78.064 13.581 78.064 14.301H78.1948H78.3255C78.3255 13.6135 78.4544 13.028 78.7068 12.54L78.5906 12.48ZM78.1948 14.301H78.064V22.7202H78.1948H78.3255V14.301H78.1948ZM78.1948 22.7202V22.5895H75.2388V22.7202V22.851H78.1948V22.7202ZM75.2388 22.7202H75.3696V14.301H75.2388H75.108V22.7202H75.2388ZM75.2388 14.301H75.3696C75.3696 13.5642 75.2348 12.9346 74.9582 12.4182L74.8429 12.48L74.7277 12.5417C74.9789 13.0106 75.108 13.5951 75.108 14.301H75.2388ZM74.8429 12.48L74.9607 12.4231C74.7038 11.891 74.3345 11.4834 73.8526 11.2054L73.7872 11.3187L73.7219 11.432C74.1549 11.6818 74.4894 12.0484 74.7252 12.5368L74.8429 12.48ZM73.7872 11.3187L73.8577 11.2086C73.3933 10.9113 72.8399 10.7656 72.2037 10.7656V10.8964V11.0272C72.7991 11.0272 73.3014 11.163 73.7167 11.4288L73.7872 11.3187ZM72.2037 10.8964V10.7656C71.5841 10.7656 71.032 10.9117 70.5516 11.2073L70.6201 11.3187L70.6887 11.4301C71.1232 11.1626 71.6268 11.0272 72.2037 11.0272V10.8964ZM70.6201 11.3187L70.5548 11.2054C70.0737 11.4829 69.6963 11.8894 69.4219 12.4199L69.538 12.48L69.6542 12.54C69.9077 12.05 70.2516 11.6823 70.6855 11.432L70.6201 11.3187ZM69.538 12.48L69.4203 12.4231C69.1636 12.9549 69.0378 13.5822 69.0378 14.301H69.1685H69.2993C69.2993 13.6123 69.4198 13.0256 69.6558 12.5368L69.538 12.48ZM69.1685 14.301H69.0378V22.7202H69.1685H69.2993V14.301H69.1685ZM69.1685 22.7202V22.5895H66.1862V22.7202V22.851H69.1685V22.7202ZM93.3426 22.0604L93.2742 22.1719L93.2763 22.1732L93.3426 22.0604ZM90.7825 19.3684L90.6674 19.4304L90.6678 19.4311L90.7825 19.3684ZM90.7825 11.7146L90.6689 11.6497L90.6682 11.6511L90.7825 11.7146ZM93.3162 9.10173L93.3834 9.21387L93.3848 9.21303L93.3162 9.10173ZM99.7823 8.67945L99.7299 8.79925L99.7299 8.79925L99.7823 8.67945ZM101.92 10.2102L101.822 10.2973L101.824 10.2986L101.92 10.2102ZM103.24 12.4008L103.117 12.4453L103.118 12.4475L103.24 12.4008ZM103.688 15.7526L103.819 15.7619L103.819 15.7619L103.688 15.7526ZM103.583 16.4388V16.5696H103.685L103.71 16.4705L103.583 16.4388ZM92.2077 16.4388H92.0769V16.5696H92.2077V16.4388ZM92.2077 14.0635V13.9327H92.0769V14.0635H92.2077ZM101.894 14.0635L101.973 14.1677L102.282 13.9327H101.894V14.0635ZM100.469 15.1456L100.34 15.1194L100.271 15.4598L100.548 15.2497L100.469 15.1456ZM100.284 12.8495L100.163 12.8991L100.164 12.9029L100.284 12.8495ZM98.9641 11.2395L98.8893 11.3469L98.8931 11.3493L98.9641 11.2395ZM94.7941 11.2395L94.8637 11.3502L94.866 11.3488L94.7941 11.2395ZM93.3689 12.9286L93.4876 12.9836L93.4881 12.9825L93.3689 12.9286ZM92.9731 15.5679L93.1033 15.5797L93.1042 15.5694L93.1035 15.559L92.9731 15.5679ZM93.3689 18.1015L93.2514 18.1589L93.2526 18.1612L93.3689 18.1015ZM94.8997 19.7907L94.8307 19.9017L94.832 19.9025L94.8997 19.7907ZM99.36 19.817L99.2904 19.7063L99.289 19.7073L99.36 19.817ZM100.812 18.3127L100.869 18.1952L100.759 18.1413L100.698 18.2478L100.812 18.3127ZM103.24 19.5003L103.36 19.5511L103.408 19.4372L103.297 19.3829L103.24 19.5003ZM101.92 21.3214L102.008 21.4182L102.008 21.418L101.92 21.3214ZM99.8087 22.5883L99.854 22.7109L99.8555 22.7104L99.8087 22.5883ZM97.1431 23.0369V22.9062C95.7386 22.9062 94.4951 22.5856 93.4088 21.9476L93.3426 22.0604L93.2763 22.1732C94.407 22.8372 95.6972 23.1677 97.1431 23.1677V23.0369ZM93.3426 22.0604L93.4109 21.9489C92.3395 21.2923 91.5021 20.4118 90.8972 19.3056L90.7825 19.3684L90.6678 19.4311C91.2945 20.5772 92.1638 21.4913 93.2742 22.1719L93.3426 22.0604ZM90.7825 19.3684L90.8976 19.3064C90.2929 18.1833 89.9895 16.9293 89.9895 15.5415H89.8588H89.728C89.728 16.9689 90.0404 18.2661 90.6674 19.4304L90.7825 19.3684ZM89.8588 15.5415H89.9895C89.9895 14.1178 90.2932 12.8646 90.8968 11.7781L90.7825 11.7146L90.6682 11.6511C90.0402 12.7815 89.728 14.0796 89.728 15.5415H89.8588ZM90.7825 11.7146L90.896 11.7795C91.5188 10.6897 92.3477 9.83531 93.3834 9.21386L93.3162 9.10173L93.2489 8.9896C92.1732 9.63498 91.3131 10.5225 90.669 11.6497L90.7825 11.7146ZM93.3162 9.10173L93.3848 9.21303C94.4182 8.57574 95.5906 8.25597 96.9055 8.25597V8.12521V7.99445C95.546 7.99445 94.3255 8.32569 93.2475 8.99043L93.3162 9.10173ZM96.9055 8.12521V8.25597C97.9637 8.25597 98.9044 8.43808 99.7299 8.79925L99.7823 8.67945L99.8347 8.55965C98.9711 8.18183 97.9939 7.99445 96.9055 7.99445V8.12521ZM99.7823 8.67945L99.7299 8.79925C100.558 9.16164 101.255 9.66107 101.823 10.2972L101.92 10.2102L102.018 10.1232C101.424 9.45732 100.696 8.93625 99.8347 8.55965L99.7823 8.67945ZM101.92 10.2102L101.824 10.2986C102.392 10.919 102.823 11.6341 103.117 12.4453L103.24 12.4008L103.363 12.3563C103.058 11.5135 102.609 10.7683 102.016 10.1218L101.92 10.2102ZM103.24 12.4008L103.118 12.4475C103.428 13.2588 103.584 14.1226 103.584 15.04H103.715H103.846C103.846 14.0924 103.685 13.1967 103.362 12.354L103.24 12.4008ZM103.715 15.04H103.584C103.584 15.2654 103.575 15.4998 103.558 15.7433L103.688 15.7526L103.819 15.7619C103.837 15.5127 103.846 15.2721 103.846 15.04H103.715ZM103.688 15.7526L103.558 15.7433C103.541 15.9831 103.507 16.2042 103.456 16.4071L103.583 16.4388L103.71 16.4705C103.765 16.2511 103.801 16.0148 103.819 15.7619L103.688 15.7526ZM103.583 16.4388V16.3081H92.2077V16.4388V16.5696H103.583V16.4388ZM92.2077 16.4388H92.3384V14.0635H92.2077H92.0769V16.4388H92.2077ZM92.2077 14.0635V14.1943H101.894V14.0635V13.9327H92.2077V14.0635ZM101.894 14.0635L101.815 13.9594L100.389 15.0414L100.469 15.1456L100.548 15.2497L101.973 14.1677L101.894 14.0635ZM100.469 15.1456L100.597 15.1717C100.777 14.2883 100.715 13.4943 100.403 12.7961L100.284 12.8495L100.164 12.9029C100.45 13.5418 100.512 14.2786 100.34 15.1194L100.469 15.1456ZM100.284 12.8495L100.405 12.7998C100.114 12.09 99.6568 11.5319 99.0352 11.1297L98.9641 11.2395L98.8931 11.3493C99.468 11.7213 99.8909 12.2365 100.163 12.8991L100.284 12.8495ZM98.9641 11.2395L99.0389 11.1322C98.4338 10.7105 97.7207 10.5017 96.9055 10.5017V10.6325V10.7633C97.6739 10.7633 98.3332 10.9592 98.8894 11.3468L98.9641 11.2395ZM96.9055 10.6325V10.5017C96.0902 10.5017 95.3611 10.7105 94.7223 11.1302L94.7941 11.2395L94.866 11.3488C95.4588 10.9592 96.1373 10.7633 96.9055 10.7633V10.6325ZM94.7941 11.2395L94.7245 11.1288C94.0845 11.5311 93.5934 12.1151 93.2498 12.8747L93.3689 12.9286L93.4881 12.9825C93.8131 12.2641 94.2721 11.7221 94.8637 11.3502L94.7941 11.2395ZM93.3689 12.9286L93.2503 12.8736C92.9043 13.6202 92.7712 14.5232 92.8426 15.5767L92.9731 15.5679L93.1035 15.559C93.0342 14.5363 93.1649 13.6798 93.4876 12.9836L93.3689 12.9286ZM92.9731 15.5679L92.8428 15.556C92.7532 16.5425 92.887 17.4119 93.2514 18.1589L93.3689 18.1015L93.4865 18.0442C93.1471 17.3484 93.017 16.5287 93.1033 15.5797L92.9731 15.5679ZM93.3689 18.1015L93.2526 18.1612C93.6322 18.9024 94.1583 19.4838 94.8307 19.9017L94.8997 19.7907L94.9687 19.6796C94.3391 19.2882 93.8447 18.7435 93.4853 18.0419L93.3689 18.1015ZM94.8997 19.7907L94.832 19.9025C95.5227 20.3206 96.303 20.5284 97.1695 20.5284V20.3977V20.2669C96.3468 20.2669 95.614 20.0701 94.9674 19.6788L94.8997 19.7907ZM97.1695 20.3977V20.5284C98.0515 20.5284 98.8076 20.3303 99.4311 19.9268L99.36 19.817L99.289 19.7073C98.716 20.078 98.0117 20.2669 97.1695 20.2669V20.3977ZM99.36 19.817L99.4296 19.9278C100.063 19.5295 100.562 19.0125 100.925 18.3776L100.812 18.3127L100.698 18.2478C100.357 18.8445 99.8886 19.3304 99.2904 19.7063L99.36 19.817ZM100.812 18.3127L100.754 18.4301L103.182 19.6178L103.24 19.5003L103.297 19.3829L100.869 18.1952L100.812 18.3127ZM103.24 19.5003L103.119 19.4496C102.846 20.0988 102.418 20.6906 101.832 21.2248L101.92 21.3214L102.008 21.418C102.619 20.8613 103.071 20.2391 103.36 19.5511L103.24 19.5003ZM101.92 21.3214L101.832 21.2247C101.265 21.7403 100.576 22.1545 99.7619 22.4661L99.8087 22.5883L99.8555 22.7104C100.696 22.3886 101.414 21.9583 102.008 21.4182L101.92 21.3214ZM99.8087 22.5883L99.7634 22.4656C98.9702 22.7587 98.0972 22.9062 97.1431 22.9062V23.0369V23.1677C98.1244 23.1677 99.0285 23.016 99.854 22.7109L99.8087 22.5883ZM106.625 22.7202H106.495V22.851H106.625V22.7202ZM106.625 2.74116V2.61039H106.495V2.74116H106.625ZM109.608 2.74116H109.738V2.61039H109.608V2.74116ZM109.608 22.7202V22.851H109.738V22.7202H109.608ZM106.625 22.7202H106.756V2.74116H106.625H106.495V22.7202H106.625ZM106.625 2.74116V2.87192H109.608V2.74116V2.61039H106.625V2.74116ZM109.608 2.74116H109.477V22.7202H109.608H109.738V2.74116H109.608ZM109.608 22.7202V22.5895H106.625V22.7202V22.851H109.608V22.7202ZM115.998 22.0604L115.929 22.1719L115.932 22.1732L115.998 22.0604ZM113.438 19.3684L113.323 19.4304L113.323 19.4311L113.438 19.3684ZM113.438 11.7146L113.324 11.6497L113.323 11.6511L113.438 11.7146ZM115.971 9.10173L116.039 9.21387L116.04 9.21303L115.971 9.10173ZM122.438 8.67945L122.385 8.79925L122.385 8.79925L122.438 8.67945ZM124.575 10.2102L124.478 10.2973L124.479 10.2986L124.575 10.2102ZM125.895 12.4008L125.772 12.4453L125.773 12.4475L125.895 12.4008ZM126.344 15.7526L126.474 15.7619L126.474 15.7619L126.344 15.7526ZM126.238 16.4388V16.5696H126.34L126.365 16.4705L126.238 16.4388ZM114.863 16.4388H114.732V16.5696H114.863V16.4388ZM114.863 14.0635V13.9327H114.732V14.0635H114.863ZM124.549 14.0635L124.628 14.1677L124.937 13.9327H124.549V14.0635ZM123.124 15.1456L122.996 15.1194L122.926 15.4598L123.203 15.2497L123.124 15.1456ZM122.939 12.8495L122.818 12.8991L122.82 12.9029L122.939 12.8495ZM121.619 11.2395L121.545 11.3469L121.548 11.3493L121.619 11.2395ZM117.449 11.2395L117.519 11.3502L117.521 11.3488L117.449 11.2395ZM116.024 12.9286L116.143 12.9836L116.143 12.9825L116.024 12.9286ZM115.628 15.5679L115.758 15.5797L115.759 15.5694L115.759 15.559L115.628 15.5679ZM116.024 18.1015L115.907 18.1589L115.908 18.1612L116.024 18.1015ZM117.555 19.7907L117.486 19.9017L117.487 19.9025L117.555 19.7907ZM122.015 19.817L121.946 19.7063L121.944 19.7073L122.015 19.817ZM123.467 18.3127L123.524 18.1952L123.414 18.1413L123.353 18.2478L123.467 18.3127ZM125.895 19.5003L126.015 19.5511L126.063 19.4372L125.952 19.3829L125.895 19.5003ZM124.575 21.3214L124.663 21.4182L124.663 21.418L124.575 21.3214ZM122.464 22.5883L122.509 22.7109L122.511 22.7104L122.464 22.5883ZM119.798 23.0369V22.9062C118.394 22.9062 117.15 22.5856 116.064 21.9476L115.998 22.0604L115.932 22.1732C117.062 22.8372 118.352 23.1677 119.798 23.1677V23.0369ZM115.998 22.0604L116.066 21.9489C114.995 21.2923 114.157 20.4118 113.552 19.3056L113.438 19.3684L113.323 19.4311C113.95 20.5772 114.819 21.4913 115.929 22.1719L115.998 22.0604ZM113.438 19.3684L113.553 19.3064C112.948 18.1833 112.645 16.9293 112.645 15.5415H112.514H112.383C112.383 16.9689 112.696 18.2661 113.323 19.4304L113.438 19.3684ZM112.514 15.5415H112.645C112.645 14.1178 112.948 12.8646 113.552 11.7781L113.438 11.7146L113.323 11.6511C112.695 12.7815 112.383 14.0796 112.383 15.5415H112.514ZM113.438 11.7146L113.551 11.7795C114.174 10.6897 115.003 9.83531 116.039 9.21386L115.971 9.10173L115.904 8.9896C114.828 9.63498 113.968 10.5225 113.324 11.6497L113.438 11.7146ZM115.971 9.10173L116.04 9.21303C117.073 8.57574 118.246 8.25597 119.561 8.25597V8.12521V7.99445C118.201 7.99445 116.981 8.32569 115.903 8.99043L115.971 9.10173ZM119.561 8.12521V8.25597C120.619 8.25597 121.56 8.43808 122.385 8.79925L122.438 8.67945L122.49 8.55965C121.626 8.18183 120.649 7.99445 119.561 7.99445V8.12521ZM122.438 8.67945L122.385 8.79925C123.213 9.16164 123.91 9.66107 124.478 10.2972L124.575 10.2102L124.673 10.1232C124.079 9.45732 123.351 8.93625 122.49 8.55965L122.438 8.67945ZM124.575 10.2102L124.479 10.2986C125.048 10.919 125.479 11.6341 125.772 12.4453L125.895 12.4008L126.018 12.3563C125.713 11.5135 125.264 10.7683 124.672 10.1218L124.575 10.2102ZM125.895 12.4008L125.773 12.4475C126.083 13.2588 126.239 14.1226 126.239 15.04H126.37H126.501C126.501 14.0924 126.34 13.1967 126.017 12.354L125.895 12.4008ZM126.37 15.04H126.239C126.239 15.2654 126.231 15.4998 126.213 15.7433L126.344 15.7526L126.474 15.7619C126.492 15.5127 126.501 15.2721 126.501 15.04H126.37ZM126.344 15.7526L126.213 15.7433C126.196 15.9831 126.162 16.2042 126.111 16.4071L126.238 16.4388L126.365 16.4705C126.42 16.2511 126.456 16.0148 126.474 15.7619L126.344 15.7526ZM126.238 16.4388V16.3081H114.863V16.4388V16.5696H126.238V16.4388ZM114.863 16.4388H114.994V14.0635H114.863H114.732V16.4388H114.863ZM114.863 14.0635V14.1943H124.549V14.0635V13.9327H114.863V14.0635ZM124.549 14.0635L124.47 13.9594L123.045 15.0414L123.124 15.1456L123.203 15.2497L124.628 14.1677L124.549 14.0635ZM123.124 15.1456L123.252 15.1717C123.432 14.2883 123.371 13.4943 123.058 12.7961L122.939 12.8495L122.82 12.9029C123.105 13.5418 123.167 14.2786 122.996 15.1194L123.124 15.1456ZM122.939 12.8495L123.06 12.7998C122.769 12.09 122.312 11.5319 121.69 11.1297L121.619 11.2395L121.548 11.3493C122.123 11.7213 122.546 12.2365 122.818 12.8991L122.939 12.8495ZM121.619 11.2395L121.694 11.1322C121.089 10.7105 120.376 10.5017 119.561 10.5017V10.6325V10.7633C120.329 10.7633 120.988 10.9592 121.545 11.3468L121.619 11.2395ZM119.561 10.6325V10.5017C118.745 10.5017 118.016 10.7105 117.378 11.1302L117.449 11.2395L117.521 11.3488C118.114 10.9592 118.792 10.7633 119.561 10.7633V10.6325ZM117.449 11.2395L117.38 11.1288C116.74 11.5311 116.249 12.1151 115.905 12.8747L116.024 12.9286L116.143 12.9825C116.468 12.2641 116.927 11.7221 117.519 11.3502L117.449 11.2395ZM116.024 12.9286L115.906 12.8736C115.56 13.6202 115.426 14.5232 115.498 15.5767L115.628 15.5679L115.759 15.559C115.689 14.5363 115.82 13.6798 116.143 12.9836L116.024 12.9286ZM115.628 15.5679L115.498 15.556C115.408 16.5425 115.542 17.4119 115.907 18.1589L116.024 18.1015L116.142 18.0442C115.802 17.3484 115.672 16.5287 115.758 15.5797L115.628 15.5679ZM116.024 18.1015L115.908 18.1612C116.287 18.9024 116.814 19.4838 117.486 19.9017L117.555 19.7907L117.624 19.6796C116.994 19.2882 116.5 18.7435 116.141 18.0419L116.024 18.1015ZM117.555 19.7907L117.487 19.9025C118.178 20.3206 118.958 20.5284 119.825 20.5284V20.3977V20.2669C119.002 20.2669 118.269 20.0701 117.623 19.6788L117.555 19.7907ZM119.825 20.3977V20.5284C120.707 20.5284 121.463 20.3303 122.086 19.9268L122.015 19.817L121.944 19.7073C121.371 20.078 120.667 20.2669 119.825 20.2669V20.3977ZM122.015 19.817L122.085 19.9278C122.718 19.5295 123.218 19.0125 123.58 18.3776L123.467 18.3127L123.353 18.2478C123.012 18.8445 122.544 19.3304 121.946 19.7063L122.015 19.817ZM123.467 18.3127L123.409 18.4301L125.837 19.6178L125.895 19.5003L125.952 19.3829L123.524 18.1952L123.467 18.3127ZM125.895 19.5003L125.774 19.4496C125.501 20.0988 125.073 20.6906 124.487 21.2248L124.575 21.3214L124.663 21.418C125.274 20.8613 125.726 20.2391 126.015 19.5511L125.895 19.5003ZM124.575 21.3214L124.487 21.2247C123.92 21.7403 123.231 22.1545 122.417 22.4661L122.464 22.5883L122.511 22.7104C123.351 22.3886 124.069 21.9583 124.663 21.4182L124.575 21.3214ZM122.464 22.5883L122.419 22.4656C121.625 22.7587 120.752 22.9062 119.798 22.9062V23.0369V23.1677C120.78 23.1677 121.684 23.016 122.509 22.7109L122.464 22.5883ZM132.395 22.0604L132.329 22.1736L132.33 22.174L132.395 22.0604ZM129.703 19.3948L129.59 19.4615L129.59 19.4615L129.703 19.3948ZM129.703 11.741L129.815 11.8085L129.815 11.8077L129.703 11.741ZM132.395 9.10173L132.459 9.21571L132.46 9.21494L132.395 9.10173ZM139.943 9.10173L139.877 9.21451L139.879 9.2157L139.943 9.10173ZM142.609 11.741L142.496 11.8064L142.497 11.8085L142.609 11.741ZM142.609 19.4212L142.721 19.4879L142.721 19.4879L142.609 19.4212ZM139.917 22.0868L139.981 22.2008L139.982 22.2L139.917 22.0868ZM138.412 19.6587L138.481 19.7698L138.481 19.7698L138.412 19.6587ZM139.943 17.996L139.828 17.9341L139.827 17.9352L139.943 17.996ZM139.943 13.1662L139.827 13.227L139.829 13.2292L139.943 13.1662ZM133.926 11.5034L133.858 11.3916L133.857 11.3924L133.926 11.5034ZM132.368 13.1662L132.254 13.1031L132.253 13.1054L132.368 13.1662ZM132.368 17.996L132.252 18.0556L132.254 18.059L132.368 17.996ZM133.926 19.6587L133.857 19.7698L133.858 19.7706L133.926 19.6587ZM136.169 23.0369V22.9062C134.818 22.9062 133.583 22.5861 132.46 21.9468L132.395 22.0604L132.33 22.174C133.494 22.8368 134.775 23.1677 136.169 23.1677V23.0369ZM132.395 22.0604L132.46 21.9472C131.354 21.3075 130.473 20.435 129.815 19.328L129.703 19.3948L129.59 19.4615C130.27 20.6067 131.184 21.5113 132.329 22.1736L132.395 22.0604ZM129.703 19.3948L129.815 19.328C129.16 18.2239 128.831 16.9717 128.831 15.5679H128.7H128.569C128.569 17.0144 128.909 18.3135 129.59 19.4615L129.703 19.3948ZM128.7 15.5679H128.831C128.831 14.1461 129.16 12.8943 129.815 11.8085L129.703 11.741L129.591 11.6734C128.909 12.8046 128.569 14.1041 128.569 15.5679H128.7ZM129.703 11.741L129.815 11.8077C130.472 10.7011 131.353 9.83773 132.459 9.2157L132.395 9.10173L132.331 8.98776C131.184 9.63257 130.271 10.5287 129.59 11.6742L129.703 11.741ZM132.395 9.10173L132.46 9.21494C133.565 8.57622 134.8 8.25597 136.169 8.25597V8.12521V7.99445C134.758 7.99445 133.477 8.32522 132.329 8.98852L132.395 9.10173ZM136.169 8.12521V8.25597C137.556 8.25597 138.79 8.57637 139.877 9.21449L139.943 9.10173L140.009 8.98897C138.879 8.32507 137.598 7.99445 136.169 7.99445V8.12521ZM139.943 9.10173L139.879 9.2157C140.985 9.83755 141.856 10.7005 142.496 11.8064L142.609 11.741L142.722 11.6755C142.059 10.5293 141.154 9.63274 140.007 8.98776L139.943 9.10173ZM142.609 11.741L142.497 11.8085C143.152 12.8943 143.481 14.1461 143.481 15.5679H143.612H143.742C143.742 14.1041 143.403 12.8046 142.721 11.6734L142.609 11.741ZM143.612 15.5679H143.481C143.481 16.9896 143.152 18.2505 142.496 19.3544L142.609 19.4212L142.721 19.4879C143.403 18.3396 143.742 17.0317 143.742 15.5679H143.612ZM142.609 19.4212L142.496 19.3544C141.839 20.4614 140.958 21.3339 139.851 21.9736L139.917 22.0868L139.982 22.2C141.128 21.5377 142.041 20.6331 142.721 19.4879L142.609 19.4212ZM139.917 22.0868L139.853 21.9728C138.747 22.5945 137.52 22.9062 136.169 22.9062V23.0369V23.1677C137.562 23.1677 138.834 22.8459 139.981 22.2008L139.917 22.0868ZM136.169 20.2657V20.3965C137.035 20.3965 137.808 20.1886 138.481 19.7698L138.412 19.6587L138.343 19.5476C137.715 19.9381 136.992 20.135 136.169 20.135V20.2657ZM138.412 19.6587L138.481 19.7698C139.153 19.3523 139.679 18.7804 140.059 18.0568L139.943 17.996L139.827 17.9352C139.468 18.6192 138.974 19.1557 138.343 19.5476L138.412 19.6587ZM139.943 17.996L140.058 18.0578C140.457 17.3156 140.654 16.4847 140.654 15.5679H140.524H140.393C140.393 16.4458 140.204 17.2335 139.828 17.9341L139.943 17.996ZM140.524 15.5679H140.654C140.654 14.6511 140.457 13.8284 140.058 13.1031L139.943 13.1662L139.829 13.2292C140.204 13.9115 140.393 14.6899 140.393 15.5679H140.524ZM139.943 13.1662L140.059 13.1054C139.679 12.3818 139.153 11.8098 138.481 11.3924L138.412 11.5034L138.343 11.6145C138.974 12.0064 139.468 12.543 139.827 13.2269L139.943 13.1662ZM138.412 11.5034L138.481 11.3924C137.808 10.9735 137.035 10.7656 136.169 10.7656V10.8964V11.0272C136.992 11.0272 137.715 11.224 138.343 11.6145L138.412 11.5034ZM136.169 10.8964V10.7656C135.32 10.7656 134.548 10.9738 133.858 11.3916L133.926 11.5034L133.993 11.6153C134.64 11.2237 135.364 11.0272 136.169 11.0272V10.8964ZM133.926 11.5034L133.857 11.3924C133.186 11.8095 132.651 12.3807 132.254 13.1031L132.368 13.1662L132.483 13.2292C132.86 12.5441 133.364 12.0068 133.995 11.6145L133.926 11.5034ZM132.368 13.1662L132.253 13.1054C131.872 13.8302 131.683 14.6521 131.683 15.5679H131.814H131.945C131.945 14.6889 132.126 13.9097 132.484 13.2269L132.368 13.1662ZM131.814 15.5679H131.683C131.683 16.4837 131.872 17.3138 132.252 18.0556L132.368 17.996L132.485 17.9364C132.126 17.2353 131.945 16.4467 131.945 15.5679H131.814ZM132.368 17.996L132.254 18.059C132.651 18.7815 133.186 19.3527 133.857 19.7698L133.926 19.6587L133.995 19.5476C133.364 19.1554 132.86 18.6181 132.483 17.933L132.368 17.996ZM133.926 19.6587L133.858 19.7706C134.548 20.1883 135.32 20.3965 136.169 20.3965V20.2657V20.135C135.364 20.135 134.64 19.9384 133.993 19.5468L133.926 19.6587ZM149.638 22.0604L149.572 22.1736L149.573 22.174L149.638 22.0604ZM146.946 19.3948L146.833 19.4615L146.833 19.4615L146.946 19.3948ZM146.946 11.741L147.058 11.8085L147.058 11.8077L146.946 11.741ZM149.638 9.10173L149.702 9.21571L149.703 9.21494L149.638 9.10173ZM157.186 9.10173L157.12 9.21451L157.122 9.2157L157.186 9.10173ZM159.851 11.741L159.738 11.8064L159.739 11.8085L159.851 11.741ZM159.851 19.4212L159.964 19.4879L159.964 19.4879L159.851 19.4212ZM157.159 22.0868L157.224 22.2008L157.225 22.2L157.159 22.0868ZM155.655 19.6587L155.724 19.7698L155.724 19.7698L155.655 19.6587ZM157.186 17.996L157.071 17.9341L157.07 17.9352L157.186 17.996ZM157.186 13.1662L157.07 13.227L157.071 13.2292L157.186 13.1662ZM151.168 11.5034L151.101 11.3916L151.099 11.3924L151.168 11.5034ZM149.611 13.1662L149.497 13.1031L149.495 13.1054L149.611 13.1662ZM149.611 17.996L149.495 18.0556L149.497 18.059L149.611 17.996ZM151.168 19.6587L151.099 19.7698L151.101 19.7706L151.168 19.6587ZM153.412 23.0369V22.9062C152.061 22.9062 150.825 22.5861 149.702 21.9468L149.638 22.0604L149.573 22.174C150.737 22.8368 152.018 23.1677 153.412 23.1677V23.0369ZM149.638 22.0604L149.703 21.9472C148.596 21.3075 147.715 20.435 147.058 19.328L146.946 19.3948L146.833 19.4615C147.513 20.6067 148.427 21.5113 149.572 22.1736L149.638 22.0604ZM146.946 19.3948L147.058 19.328C146.402 18.2239 146.073 16.9717 146.073 15.5679H145.943H145.812C145.812 17.0144 146.151 18.3135 146.833 19.4615L146.946 19.3948ZM145.943 15.5679H146.073C146.073 14.1461 146.403 12.8943 147.058 11.8085L146.946 11.741L146.834 11.6734C146.151 12.8046 145.812 14.1041 145.812 15.5679H145.943ZM146.946 11.741L147.058 11.8077C147.715 10.7011 148.596 9.83773 149.702 9.2157L149.638 9.10173L149.573 8.98776C148.427 9.63257 147.513 10.5287 146.833 11.6742L146.946 11.741ZM149.638 9.10173L149.703 9.21494C150.808 8.57622 152.043 8.25597 153.412 8.25597V8.12521V7.99445C152 7.99445 150.719 8.32522 149.572 8.98852L149.638 9.10173ZM153.412 8.12521V8.25597C154.798 8.25597 156.033 8.57637 157.12 9.21449L157.186 9.10173L157.252 8.98897C156.122 8.32507 154.84 7.99445 153.412 7.99445V8.12521ZM157.186 9.10173L157.122 9.2157C158.227 9.83755 159.099 10.7005 159.738 11.8064L159.851 11.741L159.965 11.6755C159.302 10.5293 158.397 9.63274 157.25 8.98776L157.186 9.10173ZM159.851 11.741L159.739 11.8085C160.394 12.8943 160.724 14.1461 160.724 15.5679H160.854H160.985C160.985 14.1041 160.646 12.8046 159.963 11.6734L159.851 11.741ZM160.854 15.5679H160.724C160.724 16.9896 160.394 18.2505 159.739 19.3544L159.851 19.4212L159.964 19.4879C160.646 18.3396 160.985 17.0317 160.985 15.5679H160.854ZM159.851 19.4212L159.739 19.3544C159.082 20.4614 158.201 21.3339 157.094 21.9736L157.159 22.0868L157.225 22.2C158.37 21.5377 159.284 20.6331 159.964 19.4879L159.851 19.4212ZM157.159 22.0868L157.095 21.9728C155.99 22.5945 154.763 22.9062 153.412 22.9062V23.0369V23.1677C154.805 23.1677 156.077 22.8459 157.224 22.2008L157.159 22.0868ZM153.412 20.2657V20.3965C154.278 20.3965 155.05 20.1886 155.724 19.7698L155.655 19.6587L155.586 19.5476C154.958 19.9381 154.234 20.135 153.412 20.135V20.2657ZM155.655 19.6587L155.724 19.7698C156.396 19.3523 156.922 18.7804 157.302 18.0568L157.186 17.996L157.07 17.9352C156.711 18.6192 156.216 19.1557 155.586 19.5476L155.655 19.6587ZM157.186 17.996L157.301 18.0578C157.699 17.3156 157.897 16.4847 157.897 15.5679H157.766H157.636C157.636 16.4458 157.447 17.2335 157.071 17.9341L157.186 17.996ZM157.766 15.5679H157.897C157.897 14.6511 157.699 13.8284 157.3 13.1031L157.186 13.1662L157.071 13.2292C157.446 13.9115 157.636 14.6899 157.636 15.5679H157.766ZM157.186 13.1662L157.302 13.1054C156.922 12.3818 156.396 11.8098 155.724 11.3924L155.655 11.5034L155.586 11.6145C156.216 12.0064 156.711 12.543 157.07 13.2269L157.186 13.1662ZM155.655 11.5034L155.724 11.3924C155.05 10.9735 154.278 10.7656 153.412 10.7656V10.8964V11.0272C154.234 11.0272 154.958 11.224 155.586 11.6145L155.655 11.5034ZM153.412 10.8964V10.7656C152.562 10.7656 151.791 10.9738 151.101 11.3916L151.168 11.5034L151.236 11.6153C151.883 11.2237 152.607 11.0272 153.412 11.0272V10.8964ZM151.168 11.5034L151.099 11.3924C150.428 11.8095 149.894 12.3807 149.497 13.1031L149.611 13.1662L149.726 13.2292C150.103 12.5441 150.606 12.0068 151.237 11.6145L151.168 11.5034ZM149.611 13.1662L149.495 13.1054C149.115 13.8302 148.926 14.6521 148.926 15.5679H149.057H149.188C149.188 14.6889 149.369 13.9097 149.727 13.2269L149.611 13.1662ZM149.057 15.5679H148.926C148.926 16.4837 149.115 17.3138 149.495 18.0556L149.611 17.996L149.728 17.9364C149.368 17.2353 149.188 16.4467 149.188 15.5679H149.057ZM149.611 17.996L149.497 18.059C149.894 18.7815 150.428 19.3527 151.099 19.7698L151.168 19.6587L151.237 19.5476C150.606 19.1554 150.103 18.6181 149.726 17.933L149.611 17.996ZM151.168 19.6587L151.101 19.7706C151.791 20.1883 152.562 20.3965 153.412 20.3965V20.2657V20.135C152.607 20.135 151.883 19.9384 151.236 19.5468L151.168 19.6587ZM163.766 22.7202H163.635V22.851H163.766V22.7202ZM163.766 8.44192V8.31115H163.635V8.44192H163.766ZM166.616 8.44192H166.747V8.31115H166.616V8.44192ZM166.616 11.2395L166.521 11.3285L166.747 11.5725V11.2395H166.616ZM166.273 10.87L166.152 10.8223L166.122 10.8988L166.177 10.959L166.273 10.87ZM167.962 8.83781L168.029 8.9504L168.031 8.94926L167.962 8.83781ZM173.452 8.81141L173.388 8.92525L173.388 8.92525L173.452 8.81141ZM175.352 10.7117L175.238 10.776L175.238 10.776L175.352 10.7117ZM176.038 22.7202V22.851H176.169V22.7202H176.038ZM173.082 22.7202H172.952V22.851H173.082V22.7202ZM172.687 12.48L172.57 12.54L172.571 12.5417L172.687 12.48ZM171.552 11.3187L171.485 11.4313L171.49 11.434L171.552 11.3187ZM168.253 11.3187L168.316 11.433L168.318 11.4322L168.253 11.3187ZM167.144 12.48L167.26 12.54L167.26 12.54L167.144 12.48ZM166.748 22.7202V22.851H166.879V22.7202H166.748ZM163.766 22.7202H163.897V8.44192H163.766H163.635V22.7202H163.766ZM163.766 8.44192V8.57268H166.616V8.44192V8.31115H163.766V8.44192ZM166.616 8.44192H166.486V11.2395H166.616H166.747V8.44192H166.616ZM166.616 11.2395L166.712 11.1505L166.369 10.781L166.273 10.87L166.177 10.959L166.521 11.3285L166.616 11.2395ZM166.273 10.87L166.395 10.9178C166.737 10.0455 167.282 9.39191 168.029 8.95038L167.962 8.83781L167.896 8.72523C167.095 9.19864 166.513 9.89986 166.152 10.8223L166.273 10.87ZM167.962 8.83781L168.031 8.94926C168.782 8.48833 169.655 8.25597 170.654 8.25597V8.12521V7.99445C169.613 7.99445 168.691 8.23715 167.894 8.72635L167.962 8.83781ZM170.654 8.12521V8.25597C171.691 8.25597 172.6 8.48031 173.388 8.92525L173.452 8.81141L173.516 8.69757C172.685 8.22758 171.73 7.99445 170.654 7.99445V8.12521ZM173.452 8.81141L173.388 8.92525C174.176 9.37103 174.793 9.98733 175.238 10.776L175.352 10.7117L175.466 10.6473C174.997 9.81727 174.346 9.16674 173.516 8.69757L173.452 8.81141ZM175.352 10.7117L175.238 10.776C175.683 11.5632 175.908 12.473 175.908 13.5093H176.038H176.169C176.169 12.4341 175.936 11.4789 175.466 10.6473L175.352 10.7117ZM176.038 13.5093H175.908V22.7202H176.038H176.169V13.5093H176.038ZM176.038 22.7202V22.5895H173.082V22.7202V22.851H176.038V22.7202ZM173.082 22.7202H173.213V14.301H173.082H172.952V22.7202H173.082ZM173.082 14.301H173.213C173.213 13.5642 173.078 12.9346 172.802 12.4182L172.687 12.48L172.571 12.5417C172.823 13.0106 172.952 13.5951 172.952 14.301H173.082ZM172.687 12.48L172.803 12.4199C172.527 11.8869 172.13 11.4802 171.613 11.2034L171.552 11.3187L171.49 11.434C171.959 11.685 172.318 12.0526 172.57 12.54L172.687 12.48ZM171.552 11.3187L171.618 11.2062C171.121 10.9114 170.552 10.7656 169.915 10.7656V10.8964V11.0272C170.511 11.0272 171.032 11.163 171.485 11.4312L171.552 11.3187ZM169.915 10.8964V10.7656C169.279 10.7656 168.702 10.9114 168.188 11.2052L168.253 11.3187L168.318 11.4322C168.789 11.163 169.32 11.0272 169.915 11.0272V10.8964ZM168.253 11.3187L168.189 11.2044C167.69 11.4815 167.303 11.8881 167.028 12.4199L167.144 12.48L167.26 12.54C167.513 12.0513 167.865 11.6837 168.316 11.433L168.253 11.3187ZM167.144 12.48L167.028 12.4199C166.753 12.9524 166.618 13.581 166.618 14.301H166.748H166.879C166.879 13.6135 167.008 13.028 167.26 12.54L167.144 12.48ZM166.748 14.301H166.618V22.7202H166.748H166.879V14.301H166.748ZM166.748 22.7202V22.5895H163.766V22.7202V22.851H166.748V22.7202Z" fill="#ffffff" mask="url(#path-6-outside-1_1043_42419)"/>
<defs>
<clipPath id="clip0_1043_42419">
<rect width="24" height="24" fill="white" transform="translate(24.0488 0.558105) rotate(90)"/>
</clipPath>
</defs>
</svg>